# xmcd
#
# Track frame offsets: 
#        150
#        16522
#        33970
#        48087
#        60347
#        76450
#        90307
#        106080
#        117977
#        132565
#        149755
#        162992
#        179595
#        196705
#        210667
#        223912
#        237925
#        252945
#        266672
#        280107
#
# Disc length: 3934 seconds
#
# Revision: 3
# Processed by: cddbd v1.5.2PL0 Copyright (c) Steve Scherf et al.
# Submitted via: ExactAudioCopy v0.99pb5
#
DISCID=170f5c14
DTITLE=TOM ASTOR - BEST OF
DYEAR=2001
DGENRE=Country
TTITLE0=Irgendwie Wird`s Schon Geh´n
TTITLE1=Mit Einer Starken Frau
TTITLE2=Take It Easy - Nimm´s Leicht
TTITLE3=Wir Sind Stärker Als Die Stürme
TTITLE4=Junger Adler (Ein Lied Für (M)Einen Sohn) (Remix ´93)
TTITLE5=Hautnah
TTITLE6=Der Wind Wird Sich Bald Wieder Drehen
TTITLE7=Perhaps Love
TTITLE8=Ich Will Zurück Zu Mir
TTITLE9=Worauf Willst Du Noch Warten
TTITLE10=Redneck Riviera
TTITLE11=Freundschaft
TTITLE12=Respekt Vor Deiner Schwäche
TTITLE13=Ich Bin Kein Dichter - Kein Poet
TTITLE14=Hungrige Herzen
TTITLE15=Ehrlichkeit
TTITLE16=Und Ich Bin Dein Freund
TTITLE17=Rocky Mountain Man
TTITLE18=Kleiner Rebell
TTITLE19=Hallo, Guten Morgen Deutschland (Live)
EXTD=
EXTT0=
EXTT1=
EXTT2=
EXTT3=
EXTT4=
EXTT5=
EXTT6=
EXTT7=
EXTT8=
EXTT9=
EXTT10=
EXTT11=
EXTT12=
EXTT13=
EXTT14=
EXTT15=
EXTT16=
EXTT17=
EXTT18=
EXTT19=
PLAYORDER=
